Orphan 2009 TS XviD-Fatal

Format : AVI
Format/Info : Audio Video Interleave
Duration : 1h 56mn
Overall bit rate : 840 Kbps
Writing application : VirtualDubMod 1.5.4.1 (build 2178/release)
Writing library : VirtualDubMod build 2178/release
 Video
Format : MPEG-4 Visual
Format profile : Streaming Video@L1
Format settings, BVOP : Yes
Format settings, QPel : No
Format settings, GMC : No warppoints
Format settings, Matrix : Custom
Codec ID : XVID
Codec ID/Hint : XviD
Duration : 1h 56mn
Bit rate : 719 Kbps
Width : 640 pixels
Height : 272 pixels
Display aspect ratio : 2.35
Frame rate : 29.970 fps
Resolution : 24 bits
Colorimetry : 4:2:0
Scan type : Progressive
Bits/(Pixel*Frame) : 0.138
Stream size : 598 MiB (86%)
Writing library : XviD 50
 Audio
Format : MPEG Audio
Format version : Version 1
Format profile : Layer 3
Codec ID : 55
Codec ID/Hint : MP3
Duration : 1h 56mn
Bit rate mode : Variable
Bit rate : 107 Kbps
Minimum bit rate : 128 Kbps
Channel(s) : 2 channels
Sampling rate : 48.0 KHz
Resolution : 16 bits
Stream size : 88.9 MiB (13%)
Alignment : Aligned on interleaves
Interleave, duration : 24 ms (0.72 video frame)
Interleave, preload duration : 233 ms
Writing library : LAME3.98r
Encoding settings : ABR

Screens: 
http://img.moviedl.net/images/02438931581400022845.png 
http://img.moviedl.net/images/83759097958049435201.png


